<svg xmlns="http://www.w3.org/2000/svg" width="212" height="200" viewBox="0 220 150 100" style="" data-bbox=""><g transform="matrix(0.3410710704481095, 0, 0, 0.3410710704481095, -15.815262878731737, 170.7322401944699)"><path fill="#30325E" d="M296.017 325.878c-2.471-4.297-7.217-6.685-12.157-6.276c-2.061 0.171-4.145 0.259-6.245 0.259h-55.208
			c-42.22 0-76.444-34.846-75.427-77.27c0.988-41.18 35.654-73.606 76.846-73.606h53.789c2.1 0 4.184 0.088 6.245 0.259
			c4.94 0.409 9.686-1.979 12.157-6.276h0c4.609-8.013-0.653-18.138-9.864-18.915c-2.816-0.237-5.664-0.359-8.539-0.359h-53.419
			c-55.802 0-102.913 45.652-102.526 101.452c0.172 24.783 9.307 47.438 24.307 64.895l-13.408 34.267
			c-2.924 7.472 4.89 14.623 12.074 11.05l37.424-18.611c12.352 5.402 25.994 8.406 40.34 8.406h55.208
			c2.875 0 5.723-0.121 8.539-0.359C295.364 344.016 300.626 333.892 296.017 325.878L296.017 325.878z"></path><g><path fill="#00C3AD" d="M319.126 203.064c-3.162-3.174-6.72-5.997-10.573-8.391c-2.501-1.559-5.456-2.02-8.328-1.3
				c-2.882 0.724-5.288 2.544-6.775 5.129c-0.934 1.643-1.43 3.489-1.43 5.338c0 3.79 1.943 7.272 5.203 9.313
				c10.882 6.795 17.8 18.488 17.38 31.28c0 12.786-6.5 24.478-17.386 31.274c-5.02 3.147-6.67 9.588-3.755 14.668
				c1.937 3.35 5.547 5.432 9.417 5.432c2.004 0 3.962-0.556 5.657-1.609c17.355-10.759 27.715-29.362 27.715-49.764
				C336.251 228.798 330.17 214.106 319.126 203.064z"></path><path fill="#FF7859" d="M285.149 259.492c-8.323 0-15.069-6.747-15.069-15.069c0-8.323 6.747-15.069 15.069-15.069
				c8.322 0 15.069 6.747 15.069 15.069C300.218 252.746 293.471 259.492 285.149 259.492z"></path><path fill="#FF4653" d="M378.333 244.437c0 36.197-19.075 67.917-47.718 85.676c-2.058 1.273-4.328 1.867-6.577 1.867
				c-4.392 0-8.678-2.292-11.033-6.365c-3.437-5.983-1.379-13.515 4.477-17.186c21.345-13.325 35.56-37.024 35.56-63.992
				c0-26.967-14.216-50.688-35.56-64.013c-3.925-2.461-6.153-6.662-6.153-10.969c0-2.101 0.552-4.244 1.676-6.217
				c3.564-6.195 11.563-8.253 17.632-4.477c6.62 4.116 12.73 8.954 18.204 14.449C367.067 191.436 378.333 216.621 378.333 244.437z
				"></path></g></g>
        </svg>
