<svg xmlns="http://www.w3.org/2000/svg" width="512" height="300" viewBox="0 100 512 300" style="" data-bbox=""><g transform="matrix(0.3410710704481095, 0, 0, 0.3410710704481095, -15.815262878731737, 170.7322401944699)"><path fill="#30325E" d="M296.017 325.878c-2.471-4.297-7.217-6.685-12.157-6.276c-2.061 0.171-4.145 0.259-6.245 0.259h-55.208
			c-42.22 0-76.444-34.846-75.427-77.27c0.988-41.18 35.654-73.606 76.846-73.606h53.789c2.1 0 4.184 0.088 6.245 0.259
			c4.94 0.409 9.686-1.979 12.157-6.276h0c4.609-8.013-0.653-18.138-9.864-18.915c-2.816-0.237-5.664-0.359-8.539-0.359h-53.419
			c-55.802 0-102.913 45.652-102.526 101.452c0.172 24.783 9.307 47.438 24.307 64.895l-13.408 34.267
			c-2.924 7.472 4.89 14.623 12.074 11.05l37.424-18.611c12.352 5.402 25.994 8.406 40.34 8.406h55.208
			c2.875 0 5.723-0.121 8.539-0.359C295.364 344.016 300.626 333.892 296.017 325.878L296.017 325.878z"></path><g><path fill="#00C3AD" d="M319.126 203.064c-3.162-3.174-6.72-5.997-10.573-8.391c-2.501-1.559-5.456-2.02-8.328-1.3
				c-2.882 0.724-5.288 2.544-6.775 5.129c-0.934 1.643-1.43 3.489-1.43 5.338c0 3.79 1.943 7.272 5.203 9.313
				c10.882 6.795 17.38 18.488 17.38 31.28c0 12.786-6.5 24.478-17.386 31.274c-5.02 3.147-6.67 9.588-3.755 14.668
				c1.937 3.35 5.547 5.432 9.417 5.432c2.004 0 3.962-0.556 5.657-1.609c17.355-10.759 27.715-29.362 27.715-49.764
				C336.251 228.798 330.17 214.106 319.126 203.064z"></path><path fill="#FF7859" d="M285.149 259.492c-8.323 0-15.069-6.747-15.069-15.069c0-8.323 6.747-15.069 15.069-15.069
				c8.322 0 15.069 6.747 15.069 15.069C300.218 252.746 293.471 259.492 285.149 259.492z"></path><path fill="#FF4653" d="M378.333 244.437c0 36.197-19.075 67.917-47.718 85.676c-2.058 1.273-4.328 1.867-6.577 1.867
				c-4.392 0-8.678-2.292-11.033-6.365c-3.437-5.983-1.379-13.515 4.477-17.186c21.345-13.325 35.56-37.024 35.56-63.992
				c0-26.967-14.216-50.688-35.56-64.013c-3.925-2.461-6.153-6.662-6.153-10.969c0-2.101 0.552-4.244 1.676-6.217
				c3.564-6.195 11.563-8.253 17.632-4.477c6.62 4.116 12.73 8.954 18.204 14.449C367.067 191.436 378.333 216.621 378.333 244.437z
				"></path></g></g><path text="Virtual Zone" fill="#30325e" space="preserve" text-anchor="start" offset="0" font-scale="contain" font-size="48" font-family="Fredoka One" transform="matrix(1.238684585206593, 0, 0, 1.238684585206593, 123.75529965459148, 278.2236076180816)" font-style="normal" font-weight="400" data-fl-textpath="" d="M 34.03-34.66L 34.03-34.66Q 36.86-33.26  36.86-31.58L 36.86-31.58Q 36.86-30.82  36.14-29.28L 36.14-29.28L 22.9-2.4Q 22.37-1.34  21.29-0.7Q 20.21-0.05  19.06-0.05L 19.06-0.05L 18.58-0.05Q 17.38-0.05  16.3-0.7Q 15.22-1.34  14.69-2.4L 14.69-2.4L 1.44-29.28Q 0.72-30.82  0.72-31.58L 0.72-31.58Q 0.72-33.26  3.55-34.66L 3.55-34.66Q 5.14-35.47  5.98-35.47Q 6.82-35.47  7.25-35.28Q 7.68-35.09  8.06-34.61L 8.06-34.61Q 8.5-34.03  8.86-33.34Q 9.22-32.64  10.7-29.35Q 12.19-26.06  13.9-22.37Q 15.6-18.67  17.11-15.38Q 18.62-12.1  18.82-11.71L 18.82-11.71L 28.42-32.74Q 28.8-33.65  29.09-34.18L 29.09-34.18Q 29.95-35.47  31.2-35.47Q 32.45-35.47  34.03-34.66ZM 38.304-4.22L 38.304-21.07Q 38.304-22.18  38.374-22.73Q 38.444-23.28  38.784-24L 38.784-24Q 39.454-25.25  42.524-25.25L 42.524-25.25Q 44.834-25.25  45.794-24.43L 45.794-24.43Q 46.604-23.76  46.654-22.37L 46.654-22.37Q 46.704-21.89  46.704-20.98L 46.704-20.98L 46.704-4.18Q 46.704-3.07  46.634-2.52Q 46.564-1.97  46.174-1.25L 46.174-1.25Q 45.554 0  42.484 0L 42.484 0Q 39.454 0  38.784-1.3L 38.784-1.3Q 38.444-2.02  38.374-2.54Q 38.304-3.07  38.304-4.22L 38.304-4.22ZM 46.204-29.98Q 45.844-29.28  44.924-28.99Q 44.014-28.7  42.504-28.7Q 40.994-28.7  40.084-28.99Q 39.164-29.28  38.804-30Q 38.444-30.72  38.374-31.27Q 38.304-31.82  38.304-32.93Q 38.304-34.03  38.374-34.58Q 38.444-35.14  38.784-35.81L 38.784-35.81Q 39.454-37.1  42.524-37.1L 42.524-37.1Q 45.554-37.1  46.174-35.81L 46.174-35.81Q 46.564-35.09  46.634-34.54Q 46.704-33.98  46.704-32.88Q 46.704-31.78  46.634-31.22Q 46.564-30.67  46.204-29.98ZM 67.724-25.01Q 68.644-24.72  69.244-24.02Q 69.844-23.33  69.844-21.79Q 69.844-20.26  68.924-18.43Q 68.014-16.61  66.284-16.61L 66.284-16.61Q 65.424-16.61  64.634-16.99Q 63.844-17.38  62.544-17.38Q 61.244-17.38  60.124-16.46Q 58.994-15.55  58.994-14.26L 58.994-14.26L 58.994-4.18Q 58.994-3.07  58.924-2.52Q 58.844-1.97  58.464-1.25L 58.464-1.25Q 57.744 0  54.724 0L 54.724 0Q 52.414 0  51.404-0.82L 51.404-0.82Q 50.644-1.49  50.544-2.88L 50.544-2.88Q 50.544-3.36  50.544-4.27L 50.544-4.27L 50.544-21.12Q 50.544-22.22  50.614-22.78Q 50.684-23.33  51.024-24L 51.024-24Q 51.694-25.3  54.764-25.3L 54.764-25.3Q 57.644-25.3  58.364-24.19L 58.364-24.19Q 58.894-23.42  58.894-22.61L 58.894-22.61Q 59.134-22.94  59.594-23.42Q 60.044-23.9  61.534-24.72Q 63.024-25.54  64.154-25.54Q 65.284-25.54  66.044-25.42Q 66.814-25.3  67.724-25.01ZM 87.17-16.8L 87.17-16.8L 84.05-16.99L 84.05-10.37Q 84.05-9.07  84.46-8.5Q 84.86-7.92  85.99-7.92Q 87.12-7.92  87.72-7.85Q 88.32-7.78  88.99-7.39L 88.99-7.39Q 90.1-6.77  90.1-4.18L 90.1-4.18Q 90.1-1.15  88.75-0.48L 88.75-0.48Q 88.03-0.14  87.48-0.07Q 86.93 0  85.87 0L 85.87 0Q 80.88 0  78.29-2.26Q 75.7-4.51  75.7-9.89L 75.7-9.89L 75.7-16.99Q 74.78-16.85  73.73-16.85Q 72.67-16.85  71.98-17.66Q 71.28-18.48  71.28-20.45Q 71.28-22.42  71.52-23.3Q 71.76-24.19  72.19-24.58L 72.19-24.58Q 72.96-25.2  74.11-25.2L 74.11-25.2L 75.7-25.01L 75.7-29.95Q 75.7-31.06  75.77-31.58Q 75.84-32.11  76.22-32.74L 76.22-32.74Q 76.85-33.94  79.92-33.94L 79.92-33.94Q 83.18-33.94  83.81-32.16L 83.81-32.16Q 84.05-31.39  84.05-29.71L 84.05-29.71L 84.05-25.01Q 86.16-25.2  87.24-25.2Q 88.32-25.2  88.87-25.13Q 89.42-25.06  90.14-24.67L 90.14-24.67Q 91.39-24.05  91.39-20.98L 91.39-20.98Q 91.39-17.95  90.1-17.28L 90.1-17.28Q 89.38-16.94  88.82-16.87Q 88.27-16.8  87.17-16.8ZM 105.262-0.1L 105.262-0.1Q 100.412-0.1  97.222-3.77Q 94.032-7.44  94.032-12.72L 94.032-12.72L 94.032-21.12Q 94.032-22.27  94.102-22.8Q 94.172-23.33  94.512-24.05L 94.512-24.05Q 95.182-25.34  98.252-25.34L 98.252-25.34Q 101.612-25.34  102.192-23.52L 102.192-23.52Q 102.482-22.75  102.482-21.07L 102.482-21.07L 102.482-12.67Q 102.482-10.7  103.612-9.6Q 104.732-8.5  106.632-8.5Q 108.532-8.5  109.702-9.65Q 110.882-10.8  110.882-12.67L 110.882-12.67L 110.882-21.17Q 110.882-22.27  110.952-22.82Q 111.022-23.38  111.412-24.1L 111.412-24.1Q 112.032-25.34  115.102-25.34L 115.102-25.34Q 118.132-25.34  118.802-24.05L 118.802-24.05Q 119.132-23.33  119.212-22.78Q 119.282-22.22  119.282-21.12L 119.282-21.12L 119.282-4.13Q 119.282-3.07  119.212-2.52Q 119.132-1.97  118.752-1.3L 118.752-1.3Q 118.032-0.05  115.052-0.05L 115.052-0.05Q 112.132-0.05  111.452-1.2L 111.452-1.2Q 110.972-2.02  110.972-3.17L 110.972-3.17Q 110.782-2.83  110.112-2.21Q 109.442-1.58  108.812-1.15L 108.812-1.15Q 107.182-0.1  105.262-0.1ZM 139.54-22.61L 139.54-22.61Q 139.82-25.3  143.33-25.3L 143.33-25.3Q 145.2-25.3  146.11-25.01Q 147.02-24.72  147.38-24Q 147.74-23.28  147.82-22.73Q 147.89-22.18  147.89-21.07L 147.89-21.07L 147.89-4.27Q 147.89-3.17  147.82-2.62Q 147.74-2.06  147.41-1.34L 147.41-1.34Q 146.74-0.1  144.12-0.1Q 141.5-0.1  140.62-0.74Q 139.73-1.39  139.58-2.64L 139.58-2.64Q 137.81-0.1  133.66-0.1Q 129.5-0.1  125.95-3.89Q 122.4-7.68  122.4-12.7Q 122.4-17.71  125.98-21.48Q 129.55-25.25  133.82-25.25L 133.82-25.25Q 135.46-25.25  136.8-24.67Q 138.14-24.1  138.67-23.59Q 139.2-23.09  139.54-22.61ZM 130.8-12.62Q 130.8-11.04  132.05-9.77Q 133.3-8.5  135.07-8.5Q 136.85-8.5  138.02-9.79Q 139.2-11.09  139.2-12.65Q 139.2-14.21  138.07-15.55Q 136.94-16.9  135.05-16.9Q 133.15-16.9  131.98-15.55Q 130.8-14.21  130.8-12.62ZM 151.728-10.13L 151.728-32.98Q 151.728-34.08  151.798-34.63Q 151.868-35.18  152.208-35.9L 152.208-35.9Q 152.878-37.2  155.948-37.2L 155.948-37.2Q 158.878-37.2  159.598-35.9L 159.598-35.9Q 159.988-35.18  160.058-34.61Q 160.128-34.03  160.128-32.93L 160.128-32.93L 160.128-10.7Q 160.128-8.98  160.418-8.52Q 160.708-8.06  161.688-8.06Q 162.668-8.06  163.008-7.99Q 163.348-7.92  163.828-7.58L 163.828-7.58Q 164.788-6.96  164.788-4.18L 164.788-4.18Q 164.788-1.15  163.828-0.48L 163.828-0.48Q 162.578 0.38  157.868-0.19L 157.868-0.19Q 154.178-0.67  153.068-2.64L 153.068-2.64Q 151.728-4.99  151.728-10.13L 151.728-10.13ZM 191.188-8.21L 203.138-8.21Q 205.008-8.21  205.848-7.75Q 206.688-7.3  206.998-6.43Q 207.308-5.57  207.308-4.22Q 207.308-2.88  207.068-2.06Q 206.828-1.25  206.498-0.82Q 206.158-0.38  205.488-0.19L 205.488-0.19Q 204.718 0.1  203.038 0.1L 203.038 0.1L 183.068 0.1Q 181.968 0.1  180.958-0.48L 180.958-0.48Q 178.848-1.68  178.848-4.27L 178.848-4.27Q 178.848-5.52  179.428-6.29L 179.428-6.29L 194.308-26.88L 183.268-26.88Q 182.108-26.88  181.558-26.95Q 181.008-27.02  180.238-27.36L 180.238-27.36Q 178.848-28.03  178.848-30.96L 178.848-30.96Q 178.848-34.03  180.148-34.7L 180.148-34.7Q 180.868-35.09  181.418-35.16Q 181.968-35.23  183.118-35.23L 183.118-35.23L 202.418-35.23Q 203.518-35.23  204.528-34.66Q 205.538-34.08  206.088-33.12Q 206.638-32.16  206.638-30.86Q 206.638-29.57  206.068-28.8L 206.068-28.8L 191.188-8.21ZM 209.712-12.62Q 209.712-18.38  213.742-22.13Q 217.772-25.87  222.962-25.87Q 228.142-25.87  232.132-22.15Q 236.112-18.43  236.112-12.67L 236.112-12.67Q 236.112-8.69  234.052-5.59Q 231.982-2.5  229.032-1.03Q 226.082 0.43  222.912 0.43Q 219.742 0.43  216.772-1.13Q 213.792-2.69  211.752-5.74Q 209.712-8.78  209.712-12.62L 209.712-12.62ZM 219.742-9.19Q 221.282-8.02  222.862-8.02Q 224.452-8.02  226.032-9.22Q 227.612-10.42  227.612-12.77Q 227.612-15.12  226.132-16.27Q 224.642-17.42  222.912-17.42Q 221.182-17.42  219.692-16.22Q 218.212-15.02  218.212-12.7Q 218.212-10.37  219.742-9.19ZM 253.292-25.3L 253.292-25.3Q 258.092-25.3  261.292-21.62Q 264.482-17.95  264.482-12.67L 264.482-12.67L 264.482-4.22Q 264.482-3.12  264.412-2.57Q 264.332-2.02  264.002-1.34L 264.002-1.34Q 263.332-0.05  260.252-0.05L 260.252-0.05Q 256.852-0.05  256.322-1.82L 256.322-1.82Q 256.032-2.64  256.032-4.27L 256.032-4.27L 256.032-12.72Q 256.032-14.69  254.902-15.79Q 253.772-16.9  251.882-16.9Q 249.982-16.9  248.812-15.74Q 247.632-14.59  247.632-12.72L 247.632-12.72L 247.632-4.22Q 247.632-3.12  247.562-2.57Q 247.492-2.02  247.102-1.34L 247.102-1.34Q 246.482-0.05  243.412-0.05L 243.412-0.05Q 240.382-0.05  239.712-1.34L 239.712-1.34Q 239.372-2.06  239.302-2.62Q 239.232-3.17  239.232-4.27L 239.232-4.27L 239.232-21.26Q 239.232-22.32  239.302-22.87Q 239.372-23.42  239.762-24.1L 239.762-24.1Q 240.432-25.3  243.452-25.3L 243.452-25.3Q 246.382-25.3  247.052-24.19L 247.052-24.19Q 247.532-23.38  247.532-22.22L 247.532-22.22Q 247.732-22.56  248.402-23.18Q 249.072-23.81  249.692-24.19L 249.692-24.19Q 251.332-25.3  253.292-25.3ZM 292.7-15.67Q 292.7-12.72  291.24-11.3Q 289.78-9.89  288-9.89L 288-9.89L 276.62-9.89Q 276.62-8.54  278.21-7.63Q 279.79-6.72  281.38-6.72L 281.38-6.72Q 284.16-6.72  285.74-7.3L 285.74-7.3L 286.27-7.49Q 287.42-8.02  288.19-8.02L 288.19-8.02Q 289.73-8.02  290.83-5.86L 290.83-5.86Q 291.46-4.56  291.46-3.65L 291.46-3.65Q 291.46 0.62  281.23 0.62L 281.23 0.62Q 277.68 0.62  274.92-0.6Q 272.16-1.82  270.62-3.84L 270.62-3.84Q 267.6-7.73  267.6-12.53L 267.6-12.53Q 267.6-18.58  271.51-22.2Q 275.42-25.82  281.28-25.82L 281.28-25.82Q 287.95-25.82  291.07-21.12L 291.07-21.12Q 292.7-18.62  292.7-15.67ZM 276.53-14.26L 282.58-14.26Q 284.4-14.26  284.4-15.79L 284.4-15.79Q 284.4-16.9  283.56-17.57Q 282.72-18.24  281.16-18.24Q 279.6-18.24  278.06-16.97Q 276.53-15.7  276.53-14.26L 276.53-14.26Z" style=""></path></svg>
